{
    "asset" : {
        "generator" : "Khronos glTF Blender I/O v1.6.16",
        "version" : "2.0"
    },
    "scene" : 0,
    "scenes" : [
        {
            "name" : "Scene",
            "nodes" : [
                3,
                7
            ]
        }
    ],
    "nodes" : [
        {
            "name" : "joint4",
            "rotation" : [
                0,
                0,
                0.7071068286895752,
                0.7071068286895752
            ],
            "translation" : [
                58.04479217529297,
                0,
                0
            ]
        },
        {
            "children" : [
                0
            ],
            "name" : "joint3",
            "rotation" : [
                -0.5,
                -0.5,
                -0.5,
                0.5
            ],
            "translation" : [
                82.31350708007812,
                -8.087618827819824,
                30.181190490722656
            ]
        },
        {
            "mesh" : 0,
            "name" : "Left",
            "skin" : 0
        },
        {
            "children" : [
                2,
                1
            ],
            "name" : "Armature",
            "rotation" : [
                0.7071068286895752,
                0,
                0,
                0.7071067094802856
            ],
            "scale" : [
                0.009999999776482582,
                0.009999999776482582,
                0.009999999776482582
            ]
        },
        {
            "name" : "joint2",
            "rotation" : [
                0,
                0,
                0.7060959339141846,
                0.7081162333488464
            ],
            "scale" : [
                0.9999998807907104,
                0.9999998807907104,
                1
            ],
            "translation" : [
                58.105224609375,
                -1.2218952178955078e-05,
                0
            ]
        },
        {
            "children" : [
                4
            ],
            "name" : "joint1",
            "rotation" : [
                -0.5007138252258301,
                -0.4992852509021759,
                -0.4992852509021759,
                0.5007137656211853
            ],
            "scale" : [
                0.9999999403953552,
                0.9999999403953552,
                1
            ],
            "translation" : [
                -81.80145263671875,
                -8.087617874145508,
                31.61009979248047
            ]
        },
        {
            "mesh" : 1,
            "name" : "RIght",
            "skin" : 1
        },
        {
            "children" : [
                6,
                5
            ],
            "name" : "Armature.001",
            "rotation" : [
                0.7071068286895752,
                0,
                0,
                0.7071067094802856
            ],
            "scale" : [
                0.009999999776482582,
                0.009999999776482582,
                0.009999999776482582
            ]
        }
    ],
    "materials" : [
        {
            "doubleSided" : true,
            "name" : "left_",
            "pbrMetallicRoughness" : {
                "baseColorFactor" : [
                    0.5,
                    0.5,
                    0.5,
                    1
                ],
                "metallicFactor" : 0.5,
                "roughnessFactor" : 0.5527864098548889
            }
        },
        {
            "doubleSided" : true,
            "name" : "right1",
            "pbrMetallicRoughness" : {
                "baseColorFactor" : [
                    0.5,
                    0.5,
                    0.5,
                    1
                ],
                "metallicFactor" : 0.5,
                "roughnessFactor" : 0.5527864098548889
            }
        }
    ],
    "meshes" : [
        {
            "name" : "Mesh",
            "primitives" : [
                {
                    "attributes" : {
                        "POSITION" : 0,
                        "NORMAL" : 1,
                        "TEXCOORD_0" : 2,
                        "JOINTS_0" : 3,
                        "WEIGHTS_0" : 4
                    },
                    "indices" : 5,
                    "material" : 0
                }
            ]
        },
        {
            "name" : "Mesh.001",
            "primitives" : [
                {
                    "attributes" : {
                        "POSITION" : 7,
                        "NORMAL" : 8,
                        "TEXCOORD_0" : 9,
                        "JOINTS_0" : 10,
                        "WEIGHTS_0" : 11
                    },
                    "indices" : 12,
                    "material" : 1
                }
            ]
        }
    ],
    "skins" : [
        {
            "inverseBindMatrices" : 6,
            "joints" : [
                1,
                0
            ],
            "name" : "Armature"
        },
        {
            "inverseBindMatrices" : 13,
            "joints" : [
                5,
                4
            ],
            "name" : "Armature.001"
        }
    ],
    "accessors" : [
        {
            "bufferView" : 0,
            "componentType" : 5126,
            "count" : 12547,
            "max" : [
                0.9626373052597046,
                -0.28416430950164795,
                -0.053166888654232025
            ],
            "min" : [
                0.675793468952179,
                -1.0291996002197266,
                -0.14681947231292725
            ],
            "type" : "VEC3"
        },
        {
            "bufferView" : 1,
            "componentType" : 5126,
            "count" : 12547,
            "type" : "VEC3"
        },
        {
            "bufferView" : 2,
            "componentType" : 5126,
            "count" : 12547,
            "type" : "VEC2"
        },
        {
            "bufferView" : 3,
            "componentType" : 5121,
            "count" : 12547,
            "type" : "VEC4"
        },
        {
            "bufferView" : 4,
            "componentType" : 5126,
            "count" : 12547,
            "type" : "VEC4"
        },
        {
            "bufferView" : 5,
            "componentType" : 5123,
            "count" : 45000,
            "type" : "SCALAR"
        },
        {
            "bufferView" : 6,
            "componentType" : 5126,
            "count" : 2,
            "type" : "MAT4"
        },
        {
            "bufferView" : 7,
            "componentType" : 5126,
            "count" : 12546,
            "max" : [
                -0.6787984371185303,
                -0.3080911636352539,
                -0.053166892379522324
            ],
            "min" : [
                -0.9656422734260559,
                -1.0531264543533325,
                -0.14681947231292725
            ],
            "type" : "VEC3"
        },
        {
            "bufferView" : 8,
            "componentType" : 5126,
            "count" : 12546,
            "type" : "VEC3"
        },
        {
            "bufferView" : 9,
            "componentType" : 5126,
            "count" : 12546,
            "type" : "VEC2"
        },
        {
            "bufferView" : 10,
            "componentType" : 5121,
            "count" : 12546,
            "type" : "VEC4"
        },
        {
            "bufferView" : 11,
            "componentType" : 5126,
            "count" : 12546,
            "type" : "VEC4"
        },
        {
            "bufferView" : 12,
            "componentType" : 5123,
            "count" : 45000,
            "type" : "SCALAR"
        },
        {
            "bufferView" : 13,
            "componentType" : 5126,
            "count" : 2,
            "type" : "MAT4"
        }
    ],
    "bufferViews" : [
        {
            "buffer" : 0,
            "byteLength" : 150564,
            "byteOffset" : 0
        },
        {
            "buffer" : 0,
            "byteLength" : 150564,
            "byteOffset" : 150564
        },
        {
            "buffer" : 0,
            "byteLength" : 100376,
            "byteOffset" : 301128
        },
        {
            "buffer" : 0,
            "byteLength" : 50188,
            "byteOffset" : 401504
        },
        {
            "buffer" : 0,
            "byteLength" : 200752,
            "byteOffset" : 451692
        },
        {
            "buffer" : 0,
            "byteLength" : 90000,
            "byteOffset" : 652444
        },
        {
            "buffer" : 0,
            "byteLength" : 128,
            "byteOffset" : 742444
        },
        {
            "buffer" : 0,
            "byteLength" : 150552,
            "byteOffset" : 742572
        },
        {
            "buffer" : 0,
            "byteLength" : 150552,
            "byteOffset" : 893124
        },
        {
            "buffer" : 0,
            "byteLength" : 100368,
            "byteOffset" : 1043676
        },
        {
            "buffer" : 0,
            "byteLength" : 50184,
            "byteOffset" : 1144044
        },
        {
            "buffer" : 0,
            "byteLength" : 200736,
            "byteOffset" : 1194228
        },
        {
            "buffer" : 0,
            "byteLength" : 90000,
            "byteOffset" : 1394964
        },
        {
            "buffer" : 0,
            "byteLength" : 128,
            "byteOffset" : 1484964
        }
    ],
    "buffers" : [
        {
            "byteLength" : 1485092,
            "uri" : "data:application/octet-stream;base64,"
        }
    ]
}
