{
    "asset" : {
        "generator" : "Khronos glTF Blender I/O v1.6.16",
        "version" : "2.0"
    },
    "scene" : 0,
    "scenes" : [
        {
            "name" : "Scene",
            "nodes" : [
                0
            ]
        }
    ],
    "nodes" : [
        {
            "mesh" : 0,
            "name" : "468_tris",
            "rotation" : [
                0.7071068286895752,
                0,
                0,
                0.7071067094802856
            ],
            "scale" : [
                0.009999999776482582,
                0.009999999776482582,
                0.009999999776482582
            ]
        }
    ],
    "meshes" : [
        {
            "name" : "Mesh",
            "primitives" : [
                {
                    "attributes" : {
                        "POSITION" : 0,
                        "NORMAL" : 1,
                        "TEXCOORD_0" : 2
                    },
                    "indices" : 3
                }
            ]
        }
    ],
    "accessors" : [
        {
            "bufferView" : 0,
            "componentType" : 5126,
            "count" : 743,
            "max" : [
                7.7430949211120605,
                7.586580276489258,
                9.403377532958984
            ],
            "min" : [
                -7.7430949211120605,
                -2.4358668327331543,
                -8.261777877807617
            ],
            "type" : "VEC3"
        },
        {
            "bufferView" : 1,
            "componentType" : 5126,
            "count" : 743,
            "type" : "VEC3"
        },
        {
            "bufferView" : 2,
            "componentType" : 5126,
            "count" : 743,
            "type" : "VEC2"
        },
        {
            "bufferView" : 3,
            "componentType" : 5123,
            "count" : 2694,
            "type" : "SCALAR"
        }
    ],
    "bufferViews" : [
        {
            "buffer" : 0,
            "byteLength" : 8916,
            "byteOffset" : 0
        },
        {
            "buffer" : 0,
            "byteLength" : 8916,
            "byteOffset" : 8916
        },
        {
            "buffer" : 0,
            "byteLength" : 5944,
            "byteOffset" : 17832
        },
        {
            "buffer" : 0,
            "byteLength" : 5388,
            "byteOffset" : 23776
        }
    ],
    "buffers" : [
        {
            "byteLength" : 29164,
            "uri" : "data:application/octet-stream;base64,"
        }
    ]
}
