{
    "asset" : {
        "generator" : "Khronos glTF Blender I/O v1.2.75",
        "version" : "2.0"
    },
    "scene" : 0,
    "scenes" : [
        {
            "name" : "Scene",
            "nodes" : [
                0,
                1
            ]
        }
    ],
    "nodes" : [
        {
            "mesh" : 0,
            "name" : "TEMPLE7",
            "rotation" : [
                0.7071068286895752,
                0,
                0,
                0.7071067094802856
            ],
            "scale" : [
                0.009999999776482582,
                0.009999999776482582,
                0.009999999776482582
            ]
        },
        {
            "mesh" : 1,
            "name" : "BODY7",
            "rotation" : [
                0.7071068286895752,
                0,
                0,
                0.7071067094802856
            ],
            "scale" : [
                0.009999999776482582,
                0.009999999776482582,
                0.009999999776482582
            ]
        }
    ],
    "materials" : [
        {
            "doubleSided" : true,
            "emissiveFactor" : [
                0,
                0,
                0
            ],
            "name" : "Material.006",
            "normalTexture" : {
                "index" : 0,
                "texCoord" : 0
            },
            "pbrMetallicRoughness" : {
                "baseColorTexture" : {
                    "index" : 1,
                    "texCoord" : 0
                },
                "metallicRoughnessTexture" : {
                    "index" : 2,
                    "texCoord" : 0
                }
            }
        },
        {
            "alphaMode" : "BLEND",
            "emissiveFactor" : [
                0,
                0,
                0
            ],
            "name" : "Material.007",
            "normalTexture" : {
                "index" : 3,
                "texCoord" : 0
            },
            "pbrMetallicRoughness" : {
                "baseColorTexture" : {
                    "index" : 4,
                    "texCoord" : 0
                },
                "metallicRoughnessTexture" : {
                    "index" : 5,
                    "texCoord" : 0
                }
            }
        }
    ],
    "meshes" : [
        {
            "name" : "Mesh.002",
            "primitives" : [
                {
                    "attributes" : {
                        "POSITION" : 0,
                        "NORMAL" : 1,
                        "TEXCOORD_0" : 2
                    },
                    "indices" : 3,
                    "material" : 0
                }
            ]
        },
        {
            "name" : "Mesh.003",
            "primitives" : [
                {
                    "attributes" : {
                        "POSITION" : 4,
                        "NORMAL" : 5,
                        "TEXCOORD_0" : 6
                    },
                    "indices" : 7,
                    "material" : 1
                }
            ]
        }
    ],
    "textures" : [
        {
            "source" : 0
        },
        {
            "source" : 1
        },
        {
            "source" : 2
        },
        {
            "source" : 3
        },
        {
            "source" : 4
        },
        {
            "source" : 5
        }
    ],
    "images" : [
        {
            "mimeType" : "image/png",
            "name" : "TEMPLE1_Normal",
            "uri" : "TEMPLE1_Normal.png"
        },
        {
            "mimeType" : "image/png",
            "name" : "TEMPLE1_Base_Color",
            "uri" : "TEMPLE1_Base_Color.png"
        },
        {
            "mimeType" : "image/png",
            "name" : "TEMPLE1_Metallic-TEMPLE1_Roughness",
            "uri" : "TEMPLE1_Metallic-TEMPLE1_Roughness.png"
        },
        {
            "mimeType" : "image/png",
            "name" : "BODY1_Normal",
            "uri" : "BODY1_Normal.png"
        },
        {
            "mimeType" : "image/png",
            "name" : "BODY1_Base_Color",
            "uri" : "BODY1_Base_Color.png"
        },
        {
            "mimeType" : "image/png",
            "name" : "BODY1_Metallic.png-BODY1_Roughness.png",
            "uri" : "BODY1_Metallic_png-BODY1_Roughness_png.png"
        }
    ],
    "accessors" : [
        {
            "bufferView" : 0,
            "componentType" : 5126,
            "count" : 11046,
            "max" : [
                74.75594329833984,
                -7.689400672912598,
                2.137021541595459
            ],
            "min" : [
                -74.75965118408203,
                -142.5916290283203,
                -17.38593292236328
            ],
            "type" : "VEC3"
        },
        {
            "bufferView" : 1,
            "componentType" : 5126,
            "count" : 11046,
            "type" : "VEC3"
        },
        {
            "bufferView" : 2,
            "componentType" : 5126,
            "count" : 11046,
            "type" : "VEC2"
        },
        {
            "bufferView" : 3,
            "componentType" : 5123,
            "count" : 53430,
            "type" : "SCALAR"
        },
        {
            "bufferView" : 4,
            "componentType" : 5126,
            "count" : 23215,
            "max" : [
                74.95365142822266,
                9.742712020874023,
                23.727109909057617
            ],
            "min" : [
                -74.95372009277344,
                -152.02423095703125,
                -23.662899017333984
            ],
            "type" : "VEC3"
        },
        {
            "bufferView" : 5,
            "componentType" : 5126,
            "count" : 23215,
            "type" : "VEC3"
        },
        {
            "bufferView" : 6,
            "componentType" : 5126,
            "count" : 23215,
            "type" : "VEC2"
        },
        {
            "bufferView" : 7,
            "componentType" : 5123,
            "count" : 119952,
            "type" : "SCALAR"
        }
    ],
    "bufferViews" : [
        {
            "buffer" : 0,
            "byteLength" : 132552,
            "byteOffset" : 0
        },
        {
            "buffer" : 0,
            "byteLength" : 132552,
            "byteOffset" : 132552
        },
        {
            "buffer" : 0,
            "byteLength" : 88368,
            "byteOffset" : 265104
        },
        {
            "buffer" : 0,
            "byteLength" : 106860,
            "byteOffset" : 353472
        },
        {
            "buffer" : 0,
            "byteLength" : 278580,
            "byteOffset" : 460332
        },
        {
            "buffer" : 0,
            "byteLength" : 278580,
            "byteOffset" : 738912
        },
        {
            "buffer" : 0,
            "byteLength" : 185720,
            "byteOffset" : 1017492
        },
        {
            "buffer" : 0,
            "byteLength" : 239904,
            "byteOffset" : 1203212
        }
    ],
    "buffers" : [
        {
            "byteLength" : 1443116,
            "uri" : "untitled.bin"
        }
    ]
}
